# xmcd
#
# Track frame offsets: 
#        150
#        25275
#        46500
#        63900
#        81750
#        96750
#        112050
#        135600
#        147075
#        160725
#        187125
#        207375
#        226350
#        241425
#
# Disc length: 3427 seconds
#
# Revision: 2
# Processed by: cddbd v1.5.2PL0 Copyright (c) Steve Scherf et al.
# Submitted via: ExactAudioCopy v0.95a5
#
DISCID=bd0d610e
DTITLE=俞国毅 - 情感萨克斯-卡桑布蓝卡
DYEAR=1900
DGENRE=
TTITLE0=01 回家
TTITLE1=02 茉莉花
TTITLE2=03 北国之春
TTITLE3=04 星星索
TTITLE4=05 莫斯科郊外的晚上
TTITLE5=06 草帽歌
TTITLE6=07 橄榄树
TTITLE7=08 啊！朋友再见
TTITLE8=09 喀秋莎
TTITLE9=10 友谊地久天长
TTITLE10=11 卡桑布蓝卡
TTITLE11=12 电话诉忠情
TTITLE12=13 唱风月悄佳人
TTITLE13=14 哆来咪
EXTD=
EXTT0=
EXTT1=
EXTT2=
EXTT3=
EXTT4=
EXTT5=
EXTT6=
EXTT7=
EXTT8=
EXTT9=
EXTT10=
EXTT11=
EXTT12=
EXTT13=
PLAYORDER=
